<svg width="100" height="100" viewBox="0 0 23 23" fill="none" xmlns="http://www.w3.org/2000/svg">
<g clip-path="url(#clip0_215_2)">
<path d="M3.36538 0.134437L0.287831 3.15522C0.00446857 3.43336 0.000233403 3.8884 0.27837 4.17176L1.28545 5.19776C1.56358 5.48112 2.01862 5.48536 2.30198 5.20722L5.71394 8.68329C4.80954 10.7674 5.18914 13.2786 6.87843 15.0001L13.9266 22.1807C15.0387 23.3137 16.8593 23.3307 17.9923 22.2186L22.0959 18.1907C23.2289 17.0786 23.2458 15.258 22.1337 14.125L15.0851 6.9439C13.3958 5.22287 10.8916 4.7966 8.79104 5.66205L5.37908 2.18598C5.66245 1.90785 5.66668 1.45281 5.38854 1.16944L4.38147 0.143445C4.10378 -0.139464 3.64874 -0.143699 3.36538 0.134437V0.134437ZM18.9825 15.0188L14.879 19.0467L9.44798 13.5137L13.5515 9.48579L18.9825 15.0188V15.0188Z" fill="black"/>
</g>
<defs>
<clipPath id="clip0_215_2">
<rect width="53" height="53" fill="orange"/>
</clipPath>
</defs>
</svg>
